<?xml version="1.0" encoding="UTF-8"?>
<svg width="82.561mm" height="79.368mm" version="1.1" viewBox="0 0 82.561 79.368" xmlns="http://www.w3.org/2000/svg" xmlns:cc="http://creativecommons.org/ns#" xmlns:dc="http://purl.org/dc/elements/1.1/" xmlns:rdf="http://www.w3.org/1999/02/22-rdf-syntax-ns#">
<metadata>
<rdf:RDF>
<cc:Work rdf:about="">
<dc:format>image/svg+xml</dc:format>
<dc:type rdf:resource="http://purl.org/dc/dcmitype/StillImage"/>
<dc:title/>
</cc:Work>
</rdf:RDF>
</metadata>
<g transform="translate(-214.8 -181.7)">
<path d="m255.93 185.12a37.972 37.972 0 0 0-37.972 37.972 37.972 37.972 0 0 0 37.972 37.972 37.972 37.972 0 0 0 37.972-37.972 37.972 37.972 0 0 0-9.8631-25.465 9.6776 9.6776 0 0 1-9.9746-0.0361 9.6776 9.6776 0 0 1-4.4873-9.9279 37.972 37.972 0 0 0-0.2072-0.0691 5.8575 5.8575 0 0 1-5.1364-0.46348 5.8575 5.8575 0 0 1-1.5631-1.394 37.972 37.972 0 0 0-6.7404-0.61693zm0 25.087a12.885 12.885 0 0 1 12.885 12.885 12.885 12.885 0 0 1-12.885 12.885 12.885 12.885 0 0 1-12.885-12.885 12.885 12.885 0 0 1 12.885-12.885z" fill="#ffb380" stroke-width=".35488"/>
<path d="m254.87 181.7c-21.311 0.16195-39.854 18.96-40.058 40.326-0.0699 0.9254 0.0997 1.6485 0.26255 2.394 0.0818 0.37458 0.17011 0.72277 0.25941 1.0251s-6e-4 0.35175 0.40658 0.98466a1.8988 1.8988 0 0 0 0.1303 0.17818c1.2448 1.513 3.3434 2.0647 4.9767 1.5572s2.9076-1.6562 4.0254-3.0348a1.8988 1.8988 0 0 0 0.0106-0.0118c1.896-2.3793 2.2853-5.7058 3.1341-8.4456 0.4244-1.3699 0.91726-2.555 1.4089-3.2354 0.4865-0.67329 0.74483-0.83442 1.3159-0.84377 0.6444 8e-3 0.70403 0.0873 1.0251 0.59339 0.32656 0.51482 0.65577 1.5676 0.9046 2.8657 0.49766 2.5962 0.64184 6.0821 2.5396 8.8671 1.6657 2.4444 3.7786 4.1613 6.2965 4.1918 1.2589 0.0153 2.5743-0.55405 3.4544-1.5576 0.85863-0.97913 1.3526-2.2678 1.5886-3.8064 0.60043-2.6905 2.3341-5.3979 4.41-7.302 2.082-1.9098 4.4812-2.8931 5.948-2.7676a1.8988 1.8988 0 0 0 0.0695 6e-3c4.8681 0.23643 8.0531 4.6205 8.3259 9.1771 0.11676 2.6745 0.45466 5.4164 1.3037 7.7144 0.42619 1.1535 0.97995 2.2174 1.8332 3.0796 0.85322 0.86218 2.1014 1.4778 3.4383 1.4772 1.2763-4.9e-4 2.2977-0.86785 2.8421-1.6907 0.54442-0.82284 0.86541-1.731 1.1538-2.7428 0.57682-2.0238 0.95523-4.4858 1.3916-6.9017s0.93885-4.7812 1.5737-6.3409c0.31744-0.77982 0.67229-1.3396 0.9313-1.6051 0.259-0.26549 0.30849-0.26687 0.48821-0.26687 0.73862 0 1.0609 0.15564 1.3555 0.4003 0.29469 0.24466 0.59121 0.67883 0.84258 1.3854 0.50282 1.4131 0.69373 3.755 0.87086 6.2078 0.17714 2.4528 0.33666 5.0273 1.2798 7.2977 0.94313 2.2704 3.1869 4.2185 6.2314 4.2185 1.5232 0 2.8172-0.87855 3.6251-1.8944 0.8079-1.0158 1.313-2.2048 1.706-3.441 0.786-2.4724 1.0788-5.1726 1.1821-6.8974a1.8988 1.8988 0 0 0 3e-3 -0.10675c0.0203-6.7096-1.7711-13.252-4.9178-19.066a5.8575 5.8575 0 0 1-4.8731-0.55572 5.8575 5.8575 0 0 1-2.8041-4.8005 9.6776 9.6776 0 0 1-11.146 0.77666 9.6776 9.6776 0 0 1-4.4642-10.089 5.8575 5.8575 0 0 1-5.3664-0.37205 5.8575 5.8575 0 0 1-2.5914-6.5693c-0.19801-0.0206-0.39578-0.0426-0.59457-0.06-1.6912-0.28819-3.2642-0.26031-4.6812-0.31161a1.8988 1.8988 0 0 0-0.0283-2e-3c-0.34099-8e-3 -0.68022-9e-3 -1.0188-6e-3z" color="#000000" color-rendering="auto" dominant-baseline="auto" fill="#5d4848" image-rendering="auto" shape-rendering="auto" solid-color="#000000" style="font-feature-settings:normal;font-variant-alternates:normal;font-variant-caps:normal;font-variant-ligatures:normal;font-variant-numeric:normal;font-variant-position:normal;isolation:auto;mix-blend-mode:normal;shape-padding:0;text-decoration-color:#000000;text-decoration-line:none;text-decoration-style:solid;text-indent:0;text-orientation:mixed;text-transform:none;white-space:normal"/>
<path d="m254.89 183.6c-20.229 0.15289-38.055 18.249-38.181 38.563-0.0694 0.89102 0.45957 2.9714 0.63303 3.2409 1.7207 2.0914 4.1189 0.9298 6.0622-1.467 2.5966-3.2584 2.4375-13.19 7.3385-13.242 4.9687 0.0438 3.1481 8.9096 6.0426 13.157 2.8945 4.2478 7.1383 4.8821 7.9107-0.48664 1.4011-6.3489 7.771-11.971 12.38-11.577 5.9494 0.28895 9.8061 5.5768 10.128 10.961 0.22103 5.1377 1.392 10.487 4.6796 10.486 3.9557-2e-3 2.6369-19.549 8.3816-19.549 8.7358 0 0.97303 19.51 10.581 19.51 3.4256 0 4.4242-7.2187 4.6176-10.447 0.019-6.3012-1.6647-12.469-4.6196-17.973a5.8575 6.4227 31.345 0 1-4.4033-0.57298 5.8575 6.4227 31.345 0 1-2.6714-5.0179 9.6776 10.611 31.345 0 1-11.47 1.3092 9.6776 10.611 31.345 0 1-4.1486-10.608 5.8575 6.4227 31.345 0 1-5.4904-0.16797 5.8575 6.4227 31.345 0 1-2.6067-5.8644c-1.3903-0.21055-2.7956-0.19804-4.1981-0.24881-0.32214-7e-3 -0.64394-9e-3 -0.96504-6e-3z" fill="#916f6f" stroke-width=".35488"/>
<path d="m230.75 212.59c-0.57107 9e-3 -0.8294 0.17048-1.3159 0.84377-0.49164 0.68042-0.9845 1.8655-1.4089 3.2354-0.70512 2.2761-1.0957 4.9554-2.2939 7.1619-0.01 4.2962 0.99271 8.5879 3.2315 12.537 7.6958 16.159 31.353 22.523 45.262 10.506 5.182-3.89 8.7648-9.5809 10.49-15.787-0.0329-0.0721-0.0683-0.14343-0.0985-0.21624-0.94314-2.2704-1.1027-4.8448-1.2798-7.2977-0.17713-2.4528-0.36804-4.7948-0.87086-6.2078-0.25137-0.70653-0.54789-1.1407-0.84258-1.3854-0.29468-0.24466-0.61692-0.4003-1.3555-0.4003-0.17972 0-0.22921 1e-3 -0.48821 0.26687-0.25901 0.26548-0.61386 0.82531-0.9313 1.6051-0.63488 1.5596-1.1373 3.925-1.5737 6.3409s-0.81482 4.8779-1.3916 6.9017c-0.28841 1.0119-0.6094 1.92-1.1538 2.7428-0.19824 0.29965-0.46064 0.60459-0.77468 0.87203-0.68592 1.0452-1.5002 2.0341-2.4517 2.9485-9.6347 11.131-30.911 7.5741-35.307-6.8868-0.69597-1.8748-1.074-3.8113-1.1695-5.7506-1.7153-2.7329-1.867-6.0667-2.3473-8.572-0.24883-1.2981-0.57804-2.3509-0.9046-2.8657-0.32106-0.50614-0.38069-0.58512-1.0251-0.59339z" fill="#fff" opacity=".375" stroke-width=".35488"/>
<path d="m256.18 193.02c-0.26627-8.1e-4 -0.53283 2e-3 -0.79943 9e-3 -10.861-0.26352-20.427 6.6258-25.594 15.87 0.23397-0.051 0.47731-0.0901 0.73153-0.11538 3.9345-0.16926 5.3585 3.4281 6.0316 6.8636 3.2353-8.1924 11.189-14.526 20.611-13.479 8.5108 0.01 15.256 6.2432 18.15 13.87 0.6094-1.3123 1.4327-2.5153 2.5937-3.5458 2.4115-1.4933 4.9116-0.6634 6.6324 1.1193-1.2244-3.8586-3.2997-7.4447-6.2906-10.43a9.6776 11.375 31.345 0 1-7.373-0.75743 9.6776 11.375 31.345 0 1-4.2-7.324c-3.3316-1.3314-6.8934-2.069-10.493-2.08z" fill="#fff" opacity=".351" stroke-width=".35488"/>
<path transform="rotate(-28.24)" d="m97.237 290.15h5.4546c0.4951 0 0.89368 0.39858 0.89368 0.89368 0 0.49511-0.39858 0.89369-0.89368 0.89369h-5.4546c-0.4951 0-0.89369-0.39858-0.89369-0.89369 0-0.4951 0.39858-0.89368 0.89369-0.89368z" fill="#ff0"/>
<path transform="rotate(-28.24)" d="m118.28 294.14h5.4546c0.49511 0 0.89369 0.39859 0.89369 0.89369s-0.39858 0.89369-0.89369 0.89369h-5.4546c-0.4951 0-0.89368-0.39859-0.89368-0.89369s0.39858-0.89369 0.89368-0.89369z" fill="#ff0"/>
<path transform="rotate(-28.24)" d="m124.81 284.79h5.4546c0.4951 0 0.89369 0.39859 0.89369 0.89369s-0.39859 0.89369-0.89369 0.89369h-5.4546c-0.4951 0-0.89369-0.39859-0.89369-0.89369s0.39859-0.89369 0.89369-0.89369z" fill="#5df"/>
<path transform="rotate(-28.24)" d="m130.68 304.83h5.4546c0.49511 0 0.89369 0.39858 0.89369 0.89368 0 0.49511-0.39858 0.89369-0.89369 0.89369h-5.4546c-0.49511 0-0.89369-0.39858-0.89369-0.89369 0-0.4951 0.39858-0.89368 0.89369-0.89368z" fill="#5df"/>
<path transform="rotate(-28.24)" d="m104.17 304.45h5.4546c0.49511 0 0.89369 0.39859 0.89369 0.89369s-0.39858 0.89369-0.89369 0.89369h-5.4546c-0.49511 0-0.89369-0.39859-0.89369-0.89369s0.39858-0.89369 0.89369-0.89369z" fill="#5df"/>
<path transform="rotate(-28.24)" d="m136.81 319.21h5.4546c0.4951 0 0.89369 0.39859 0.89369 0.89369s-0.39859 0.89369-0.89369 0.89369h-5.4546c-0.4951 0-0.89369-0.39859-0.89369-0.89369s0.39859-0.89369 0.89369-0.89369z" fill="#0f0"/>
<path transform="rotate(-28.24)" d="m144.49 311.49h5.4546c0.4951 0 0.89368 0.39859 0.89368 0.89369s-0.39858 0.89369-0.89368 0.89369h-5.4546c-0.49511 0-0.89369-0.39859-0.89369-0.89369s0.39858-0.89369 0.89369-0.89369z" fill="#ff0"/>
<path transform="rotate(-28.24)" d="m150.93 332.34h5.4546c0.4951 0 0.89369 0.39858 0.89369 0.89368 0 0.49511-0.39859 0.89369-0.89369 0.89369h-5.4546c-0.4951 0-0.89369-0.39858-0.89369-0.89369 0-0.4951 0.39859-0.89368 0.89369-0.89368z" fill="#ff0"/>
<path transform="rotate(-28.24)" d="m134.7 293.13h5.4546c0.4951 0 0.89369 0.39859 0.89369 0.89369 0 0.49511-0.39859 0.89369-0.89369 0.89369h-5.4546c-0.4951 0-0.89369-0.39858-0.89369-0.89369 0-0.4951 0.39859-0.89369 0.89369-0.89369z" fill="#0f0"/>
<path transform="rotate(-28.24)" d="m105.74 284.63h5.4546c0.49511 0 0.89369 0.39858 0.89369 0.89369 0 0.4951-0.39858 0.89368-0.89369 0.89368h-5.4546c-0.4951 0-0.89368-0.39858-0.89368-0.89368 0-0.49511 0.39858-0.89369 0.89368-0.89369z" fill="#0f0"/>
<path transform="rotate(62.58)" d="m286.06-117.96h5.4546c0.4951 0 0.89369 0.39859 0.89369 0.89369s-0.39859 0.89369-0.89369 0.89369h-5.4546c-0.4951 0-0.89368-0.39859-0.89368-0.89369s0.39858-0.89369 0.89368-0.89369z" fill="#5df"/>
<path transform="rotate(62.58)" d="m293.57-135.32h5.4546c0.4951 0 0.89369 0.39859 0.89369 0.89369s-0.39859 0.89369-0.89369 0.89369h-5.4546c-0.4951 0-0.89369-0.39859-0.89369-0.89369s0.39859-0.89369 0.89369-0.89369z" fill="#0f0"/>
<path transform="rotate(62.58)" d="m318.17-160.08h5.4546c0.4951 0 0.89369 0.39859 0.89369 0.89369s-0.39859 0.89369-0.89369 0.89369h-5.4546c-0.4951 0-0.89369-0.39859-0.89369-0.89369s0.39859-0.89369 0.89369-0.89369z" fill="#5df"/>
<path transform="rotate(62.58)" d="m308.71-138.47h5.4546c0.4951 0 0.89369 0.39859 0.89369 0.89369s-0.39859 0.89369-0.89369 0.89369h-5.4546c-0.4951 0-0.89368-0.39859-0.89368-0.89369s0.39858-0.89369 0.89368-0.89369z" fill="#0f0"/>
<path transform="rotate(62.58)" d="m298.86-123.83h5.4546c0.49511 0 0.89369 0.39859 0.89369 0.89369s-0.39858 0.89369-0.89369 0.89369h-5.4546c-0.4951 0-0.89368-0.39859-0.89368-0.89369s0.39858-0.89369 0.89368-0.89369z" fill="#0f0"/>
<path transform="rotate(62.58)" d="m277.12-124.35h5.4546c0.4951 0 0.89369 0.39859 0.89369 0.89369s-0.39859 0.89369-0.89369 0.89369h-5.4546c-0.4951 0-0.89368-0.39859-0.89368-0.89369s0.39858-0.89369 0.89368-0.89369z" fill="#0f0"/>
</g>
</svg>
