<svg width="1072" height="502" viewBox="0 0 1072 502" fill="none" xmlns="http://www.w3.org/2000/svg">
<g id="landScape">
<g id="landScape_2">
<path id="plant" d="M74.3507 461.577L137.782 370.439L74.3185 471.491L74.2815 481.86C69.7581 481.822 65.2803 481.675 60.8483 481.418C60.8281 479.064 66.2195 349.519 65.9903 347.176C66.3032 347.087 66.4787 334.924 66.6029 334.391L0.335693 234.797L66.674 324.965L66.8718 327.63L70.8073 226.983L13.8436 123.915L71.2579 209.298C71.2792 207.928 73.9754 1.27511 74.0019 0C74.0182 0.67732 75.2556 164.455 75.2647 165.145L129.744 99.2225L75.2124 179.311L74.9339 269.39L125.49 182.283C62.3966 309.315 76.3595 264.862 74.748 332.722L148.184 211.43L74.6852 350.196L74.3507 461.577Z" fill="#D0CDE1"/>
<path id="base" d="M536 501.469C832.025 501.469 1072 492.067 1072 480.469C1072 468.872 832.025 459.469 536 459.469C239.975 459.469 0 468.872 0 480.469C0 492.067 239.975 501.469 536 501.469Z" fill="#D0CDE1"/>
</g>
</g>
</svg>
