<svg width="612" height="365" viewBox="0 0 612 365" fill="none" xmlns="http://www.w3.org/2000/svg">
<g id="loginCard">
<g id="loginCard_2">
<g id="Group 8">
<g id="Group 7">
<path id="Vector" d="M612 0H0V364.87H612V0Z" fill="#3F3D56"/>
</g>
</g>
<path id="up" d="M151.46 0C150.834 38.395 135.144 75.006 107.772 101.938C80.4003 128.87 43.54 143.966 5.14 143.97C3.42 143.97 1.71 143.94 0 143.88V0H151.46Z" fill="#6C63FF"/>
<path id="down" d="M335.937 364.87H277.73C279.92 358.913 283.885 353.773 289.09 350.141C294.294 346.51 300.487 344.563 306.834 344.563C313.18 344.563 319.373 346.51 324.578 350.141C329.782 353.773 333.747 358.913 335.937 364.87V364.87Z" fill="#6C63FF"/>
<path id="right" d="M612 176.14V299.04C596.222 298.269 581.345 291.458 570.451 280.018C559.557 268.579 553.48 253.387 553.48 237.59C553.48 221.793 559.557 206.601 570.451 195.162C581.345 183.722 596.222 176.911 612 176.14V176.14Z" fill="#6C63FF"/>
<path id="email" d="M499.57 132.584H113.49C103.532 132.584 95.4593 140.657 95.4593 150.616V150.616C95.4593 160.574 103.532 168.647 113.49 168.647H499.57C509.529 168.647 517.601 160.574 517.601 150.616C517.601 140.657 509.529 132.584 499.57 132.584Z" fill="white"/>
<path id="password" d="M499.57 203.648H113.49C103.532 203.648 95.4593 211.721 95.4593 221.68V221.68C95.4593 231.638 103.532 239.711 113.49 239.711H499.57C509.529 239.711 517.601 231.638 517.601 221.68C517.601 211.721 509.529 203.648 499.57 203.648Z" fill="white"/>
<path id="btnSubmit" d="M499.57 274.713H387.628C377.67 274.713 369.597 282.785 369.597 292.744C369.597 302.702 377.67 310.775 387.628 310.775H499.57C509.529 310.775 517.601 302.702 517.601 292.744C517.601 282.785 509.529 274.713 499.57 274.713Z" fill="white"/>
</g>
</g>
</svg>
  