<svg width="460" height="628" viewBox="0 0 460 628" fill="none" xmlns="http://www.w3.org/2000/svg">
<g id="user">
<g id="user_2">
<g id="Group 5">
<g id="Group 2">
<g id="shoeUp">
<path id="shoeUp_2" d="M253.415 340.308C253.415 340.308 247.805 330.023 238.456 340.308C229.107 350.592 206.668 362.746 206.668 362.746C206.668 362.746 158.052 373.965 197.319 383.315C236.586 392.664 241.261 383.315 241.261 383.315C241.261 383.315 247.805 385.184 253.415 387.054C259.025 388.924 295.487 382.38 295.487 376.77C295.487 371.16 283.108 337.636 278.078 342.712C273.049 347.787 253.415 340.308 253.415 340.308Z" fill="#2F2E41"/>
</g>
<path id="shoeDown" d="M401.381 568.461C401.381 568.461 387.596 557.108 384.352 560.352C381.109 563.595 364.08 585.489 364.08 585.489C364.08 585.489 318.67 620.357 360.026 626.034C401.381 631.71 398.948 616.303 398.948 616.303H411.923C413.544 616.303 435.438 606.572 434.627 602.518C433.817 598.464 424.086 565.402 420.842 567.742C417.599 570.082 401.381 568.461 401.381 568.461Z" fill="#2F2E41"/>
<g id="shoeDown_2">
<path id="Vector" d="M436.052 112.12C436.052 112.12 452.881 118.664 453.815 140.168C454.75 161.671 449.141 221.507 449.141 221.507C449.141 221.507 469.709 251.424 453.815 259.839C437.922 268.253 436.052 226.181 436.052 226.181L417.353 137.363C417.353 137.363 428.572 111.185 436.052 112.12Z" fill="#A0616A"/>
<path id="Vector_2" d="M264.025 181.304C264.025 181.304 223.823 207.482 221.953 186.914C220.083 166.346 234.107 85.9416 234.107 85.9416C234.107 85.9416 235.977 51.3491 255.61 59.7635C275.244 68.178 250.001 97.1608 250.001 97.1608L252.805 162.606L271.504 161.671L264.025 181.304Z" fill="#A0616A"/>
<path id="Vector_3" d="M328.535 205.613C328.535 205.613 205.124 159.801 211.669 213.092C218.213 266.383 250.001 333.698 250.001 333.698L261.22 351.462H284.593L269.634 255.164C269.634 255.164 322.925 285.082 338.819 280.407C338.819 280.407 359.388 417.842 366.867 428.126C374.346 438.41 387.435 562.756 387.435 562.756L399.59 577.715H422.963V367.356C422.963 367.356 463.165 236.465 432.312 229.921C401.459 223.376 328.535 205.613 328.535 205.613Z" fill="#2F2E41"/>
<path id="Vector_4" d="M276.179 76.5923C293.735 76.5923 307.966 62.3605 307.966 44.8047C307.966 27.2488 293.735 13.017 276.179 13.017C258.623 13.017 244.391 27.2488 244.391 44.8047C244.391 62.3605 258.623 76.5923 276.179 76.5923Z" fill="#A0616A"/>
<path id="Vector_5" d="M298.617 41.0649C298.617 41.0649 322.925 61.6334 339.754 61.6334C356.583 61.6334 315.446 99.9656 315.446 99.9656L278.984 67.243L298.617 41.0649Z" fill="#A0616A"/>
<path id="Vector_6" d="M307.966 99.9656L307.238 92.5999C307.238 92.5999 325.73 59.7636 331.34 56.9588C336.949 54.154 340.689 54.154 340.689 54.154C340.689 54.154 359.388 34.5204 379.956 44.8047C400.525 55.0889 449.141 120.534 449.141 120.534C449.141 120.534 414.548 123.339 419.223 150.452C419.223 150.452 453.815 239.27 444.466 240.205C435.117 241.14 407.069 234.596 378.086 247.685C349.103 260.774 336.014 252.359 336.014 252.359L321.055 203.743C321.055 203.743 293.008 187.849 293.942 173.825L253.273 192.056L257.013 157.464L281.788 128.948C281.788 128.948 277.114 125.209 307.966 99.9656Z" fill="#575A89"/>
<path id="Vector_7" d="M246.938 48.2413C245.675 49.6453 244.091 50.7238 242.322 51.385C240.512 51.8956 238.231 51.2694 237.509 49.5322L238.853 47.7828L234.824 45.2789L236.58 43.2188L233.334 39.6944L235.896 37.6621L231.019 34.174C237.34 23.8594 244.176 13.4156 254.156 6.57794C264.135 -0.25968 278.08 -2.68932 288.304 3.77814C293.612 7.13596 297.365 12.4654 300.372 17.9799C306.418 29.0701 311.748 39.8806 312.535 52.4875C308.737 48.7888 303.192 46.7045 299.393 43.0058C297.712 41.2211 295.806 39.6613 293.724 38.3651C289.752 36.1249 284.998 35.9267 280.551 34.9161C276.811 34.0664 274.385 32.3808 271.555 29.9711C268.19 27.1045 268.053 28.2129 264.654 31.4403C258.753 37.0446 252.847 42.6449 246.938 48.2413Z" fill="#2F2E41"/>
</g>
</g>
</g>
</g>
</g>
</svg>
